<svg xmlns="http://www.w3.org/2000/svg" version="1" viewBox="0 0 32 32" id="Food">
  <path d="M16 0C7.164 0 0 7.164 0 16s7.164 16 16 16 16-7.164 16-16S24.836 0 16 0zm.188 10.82c.753 0 1.358.678 1.433 1.205 0 .302-.152.604-.303.83 3.468.603 6.106 3.468 6.106 7.01 0 .226-.074.452-.074.678h1.505c.151 0 .303.152.303.303 0 .15-.152.3-.303.3-2.94.076-10.325 0-15.45 0h-2.26c-.151 0-.303-.15-.303-.3 0-.151.152-.303.303-.303h2.034c-.075-.226-.075-.377-.075-.604 0-3.542 2.562-6.406 6.029-6.933-.226-.226-.301-.527-.301-.828a1.35 1.35 0 0 1 1.355-1.358zm2.94 4.825c-.3.075-.301.602-.075.527.603.15 1.13.528 1.281 1.13 0 .151.226.303.377.227.15 0 .302-.226.227-.377-.151-.753-.906-1.357-1.735-1.507h-.074z" fill="#ff00ff" class="color000000 svgShape"></path>
</svg>
